# xmcd
#
# Track frame offsets: 
#        150
#        25397
#        51733
#        73666
#        93249
#        123923
#        153257
#        168774
#        190177
#        217626
#        251779
#        268813
#        302563
#        322588
#
# Disc length: 4698 seconds
#
# Revision: 5
# Processed by: cddbd v1.5.2PL0 Copyright (c) Steve Scherf et al.
# Submitted via: ExactAudioCopy v0.90b4
#
DISCID=b812580e
DTITLE=Various Artist - Future Retro
DYEAR=2006
DGENRE=Electronic
TTITLE0=The Cure - The Walk (Infusion Mix)
TTITLE1=Yaz - Situation (Richard X Remix)
TTITLE2=Echo and The Bunnymen - Lips Like Sugar (Way Out West Remix Edit
TTITLE2=)
TTITLE3=INXS - Need You Tonight (Static Avenger Mix Edit)
TTITLE4=Depeche Mode - Shake The Disease (Tiga Remix)
TTITLE5=Erasure - A Little Respect (Jaded Alliance 'Electrospect' Remi
TTITLE5=x)
TTITLE6=Howard Jones - New Song (Peter Black and Hardrock Striker Mix Ed
TTITLE6=it)
TTITLE7=Alphaville - Forever Young (Hamel Album Mix)
TTITLE8=New Order - Bizarre Love Triangle (The Crystal Method Extended
TTITLE8=Mix)
TTITLE9=Grandmaster and Melle Mel - White Lines (Don't Don't Do It) (Eli
TTITLE9=te Force Mix)
TTITLE10=Devo - Girl U Want (Black Light Odyssey Mix)
TTITLE11=B-Movie - Nowhere Girl (Adam Freeland Mix)
TTITLE12=Book Of Love - Boy (DJ Irene Rockstar Mix)
TTITLE13=Morrissey - Suedehead (Sparks Remix)
EXTD=
EXTT0=
EXTT1=
EXTT2=
EXTT3=
EXTT4=
EXTT5=
EXTT6=
EXTT7=
EXTT8=
EXTT9=
EXTT10=
EXTT11=
EXTT12=
EXTT13=
PLAYORDER=
